<?xml version="1.0" standalone="no"?>
 <!DOCTYPE svg PUBLIC "-//W3C//DTD SVG 1.1//EN" 
 "http://www.w3.org/Graphics/SVG/1.1/DTD/svg11.dtd"> 
<svg
  xmlns:svg="http://www.w3.org/2000/svg"
  xmlns="http://www.w3.org/2000/svg"
  xmlns:xlink="http://www.w3.org/1999/xlink"
  version="1.1"
  width="27.940000cm" height="21.590000cm" viewBox="0 0 279400000 215900000">
<title>SVG Picture created as mp3-F_Silkscreen.svg date 2022/10/11 18:35:49 </title>
  <desc>Picture generated by PCBNEW </desc>
<g style="fill:#000000; fill-opacity:1.000000;stroke:#000000; stroke-opacity:1.000000;
stroke-linecap:round; stroke-linejoin:round;"
 transform="translate(0 0) scale(1 1)">
</g>
<g style="fill:#000000; fill-opacity:0.0; 
stroke:#000000; stroke-width:0.000000; stroke-opacity:1; 
stroke-linecap:round; stroke-linejoin:round;">
</g>
<g style="fill:#000000; fill-opacity:0.0; 
stroke:#000000; stroke-width:75000.000000; stroke-opacity:1; 
stroke-linecap:round; stroke-linejoin:round;">
<text x="68427600.000000" y="77924800.000000"
textLength="735714.000000" font-size="400000.000000" lengthAdjust="spacingAndGlyphs"
text-anchor="middle" opacity="0">C1</text>
<g class="stroked-text"><desc>C1</desc>
<path d="M68377600 77881942
L68363314 77896228
L68320457 77910514
L68291885 77910514
L68249028 77896228
L68220457 77867657
L68206171 77839085
L68191885 77781942
L68191885 77739085
L68206171 77681942
L68220457 77653371
L68249028 77624800
L68291885 77610514
L68320457 77610514
L68363314 77624800
L68377600 77639085
" />
<path d="M68663314 77910514
L68491885 77910514
" />
<path d="M68577600 77910514
L68577600 77610514
L68549028 77653371
L68520457 77681942
L68491885 77696228
" />
</g></g>
<g style="fill:#000000; fill-opacity:0.0; 
stroke:#000000; stroke-width:125000.000000; stroke-opacity:1; 
stroke-linecap:round; stroke-linejoin:round;">
<text x="64160400.000000" y="72081200.000000"
textLength="1549881.000000" font-size="666666.000000" lengthAdjust="spacingAndGlyphs"
text-anchor="middle" opacity="0">C13</text>
<g class="stroked-text"><desc>C13</desc>
<path d="M63838971 72009771
L63815161 72033580
L63743733 72057390
L63696114 72057390
L63624685 72033580
L63577066 71985961
L63553257 71938342
L63529447 71843104
L63529447 71771676
L63553257 71676438
L63577066 71628819
L63624685 71581200
L63696114 71557390
L63743733 71557390
L63815161 71581200
L63838971 71605009
" />
<path d="M64315161 72057390
L64029447 72057390
" />
<path d="M64172304 72057390
L64172304 71557390
L64124685 71628819
L64077066 71676438
L64029447 71700247
" />
<path d="M64481828 71557390
L64791352 71557390
L64624685 71747866
L64696114 71747866
L64743733 71771676
L64767542 71795485
L64791352 71843104
L64791352 71962152
L64767542 72009771
L64743733 72033580
L64696114 72057390
L64553257 72057390
L64505638 72033580
L64481828 72009771
" />
</g><g transform="rotate(-90.000000 62179200.000000 65227200.000000)">
<text x="62179200.000000" y="65477200.000000"
textLength="1614881.000000" font-size="666666.000000" lengthAdjust="spacingAndGlyphs"
text-anchor="middle" opacity="0">C12</text>
</g>
<g class="stroked-text"><desc>C12</desc>
<path d="M62357771 65548628
L62381580 65572438
L62405390 65643866
L62405390 65691485
L62381580 65762914
L62333961 65810533
L62286342 65834342
L62191104 65858152
L62119676 65858152
L62024438 65834342
L61976819 65810533
L61929200 65762914
L61905390 65691485
L61905390 65643866
L61929200 65572438
L61953009 65548628
" />
<path d="M62405390 65072438
L62405390 65358152
" />
<path d="M62405390 65215295
L61905390 65215295
L61976819 65262914
L62024438 65310533
L62048247 65358152
" />
<path d="M61953009 64881961
L61929200 64858152
L61905390 64810533
L61905390 64691485
L61929200 64643866
L61953009 64620057
L62000628 64596247
L62048247 64596247
L62119676 64620057
L62405390 64905771
L62405390 64596247
" />
</g><g transform="rotate(-90.000000 73202800.000000 82956400.000000)">
<text x="73202800.000000" y="83206400.000000"
textLength="1138690.000000" font-size="666666.000000" lengthAdjust="spacingAndGlyphs"
text-anchor="middle" opacity="0">C6</text>
</g>
<g class="stroked-text"><desc>C6</desc>
<path d="M73381371 83039733
L73405180 83063542
L73428990 83134971
L73428990 83182590
L73405180 83254019
L73357561 83301638
L73309942 83325447
L73214704 83349257
L73143276 83349257
L73048038 83325447
L73000419 83301638
L72952800 83254019
L72928990 83182590
L72928990 83134971
L72952800 83063542
L72976609 83039733
" />
<path d="M72928990 82611161
L72928990 82706400
L72952800 82754019
L72976609 82777828
L73048038 82825447
L73143276 82849257
L73333752 82849257
L73381371 82825447
L73405180 82801638
L73428990 82754019
L73428990 82658780
L73405180 82611161
L73381371 82587352
L73333752 82563542
L73214704 82563542
L73167085 82587352
L73143276 82611161
L73119466 82658780
L73119466 82754019
L73143276 82801638
L73167085 82825447
L73214704 82849257
" />
</g><text x="58978800.000000" y="51659600.000000"
textLength="1019643.000000" font-size="666666.000000" lengthAdjust="spacingAndGlyphs"
text-anchor="middle" opacity="0">J2</text>
<g class="stroked-text"><desc>J2</desc>
<path d="M58812133 51135790
L58812133 51492933
L58788323 51564361
L58740704 51611980
L58669276 51635790
L58621657 51635790
" />
<path d="M59026419 51183409
L59050228 51159600
L59097847 51135790
L59216895 51135790
L59264514 51159600
L59288323 51183409
L59312133 51231028
L59312133 51278647
L59288323 51350076
L59002609 51635790
L59312133 51635790
" />
</g><text x="60858400.000000" y="57044400.000000"
textLength="1019643.000000" font-size="666666.000000" lengthAdjust="spacingAndGlyphs"
text-anchor="middle" opacity="0">J1</text>
<g class="stroked-text"><desc>J1</desc>
<path d="M60691733 56520590
L60691733 56877733
L60667923 56949161
L60620304 56996780
L60548876 57020590
L60501257 57020590
" />
<path d="M61191733 57020590
L60906019 57020590
" />
<path d="M61048876 57020590
L61048876 56520590
L61001257 56592019
L60953638 56639638
L60906019 56663447
" />
</g><g transform="rotate(-90.000000 72339200.000000 78384400.000000)">
<text x="72339200.000000" y="78634400.000000"
textLength="1138690.000000" font-size="666666.000000" lengthAdjust="spacingAndGlyphs"
text-anchor="middle" opacity="0">R5</text>
</g>
<g class="stroked-text"><desc>R5</desc>
<path d="M72565390 78467733
L72327295 78634400
" />
<path d="M72565390 78753447
L72065390 78753447
L72065390 78562971
L72089200 78515352
L72113009 78491542
L72160628 78467733
L72232057 78467733
L72279676 78491542
L72303485 78515352
L72327295 78562971
L72327295 78753447
" />
<path d="M72065390 78015352
L72065390 78253447
L72303485 78277257
L72279676 78253447
L72255866 78205828
L72255866 78086780
L72279676 78039161
L72303485 78015352
L72351104 77991542
L72470152 77991542
L72517771 78015352
L72541580 78039161
L72565390 78086780
L72565390 78205828
L72541580 78253447
L72517771 78277257
" />
</g><g transform="rotate(-90.000000 66344800.000000 80416400.000000)">
<text x="66344800.000000" y="80666400.000000"
textLength="1614881.000000" font-size="666666.000000" lengthAdjust="spacingAndGlyphs"
text-anchor="middle" opacity="0">C11</text>
</g>
<g class="stroked-text"><desc>C11</desc>
<path d="M66523371 80737828
L66547180 80761638
L66570990 80833066
L66570990 80880685
L66547180 80952114
L66499561 80999733
L66451942 81023542
L66356704 81047352
L66285276 81047352
L66190038 81023542
L66142419 80999733
L66094800 80952114
L66070990 80880685
L66070990 80833066
L66094800 80761638
L66118609 80737828
" />
<path d="M66570990 80261638
L66570990 80547352
" />
<path d="M66570990 80404495
L66070990 80404495
L66142419 80452114
L66190038 80499733
L66213847 80547352
" />
<path d="M66570990 79785447
L66570990 80071161
" />
<path d="M66570990 79928304
L66070990 79928304
L66142419 79975923
L66190038 80023542
L66213847 80071161
" />
</g><g transform="rotate(-90.000000 69494400.000000 93929200.000000)">
<text x="69494400.000000" y="94179200.000000"
textLength="1138690.000000" font-size="666666.000000" lengthAdjust="spacingAndGlyphs"
text-anchor="middle" opacity="0">R8</text>
</g>
<g class="stroked-text"><desc>R8</desc>
<path d="M69720590 94012533
L69482495 94179200
" />
<path d="M69720590 94298247
L69220590 94298247
L69220590 94107771
L69244400 94060152
L69268209 94036342
L69315828 94012533
L69387257 94012533
L69434876 94036342
L69458685 94060152
L69482495 94107771
L69482495 94298247
" />
<path d="M69434876 93726819
L69411066 93774438
L69387257 93798247
L69339638 93822057
L69315828 93822057
L69268209 93798247
L69244400 93774438
L69220590 93726819
L69220590 93631580
L69244400 93583961
L69268209 93560152
L69315828 93536342
L69339638 93536342
L69387257 93560152
L69411066 93583961
L69434876 93631580
L69434876 93726819
L69458685 93774438
L69482495 93798247
L69530114 93822057
L69625352 93822057
L69672971 93798247
L69696780 93774438
L69720590 93726819
L69720590 93631580
L69696780 93583961
L69672971 93560152
L69625352 93536342
L69530114 93536342
L69482495 93560152
L69458685 93583961
L69434876 93631580
" />
</g><g transform="rotate(-90.000000 61925200.000000 82245200.000000)">
<text x="61925200.000000" y="82495200.000000"
textLength="1138690.000000" font-size="666666.000000" lengthAdjust="spacingAndGlyphs"
text-anchor="middle" opacity="0">C2</text>
</g>
<g class="stroked-text"><desc>C2</desc>
<path d="M62103771 82328533
L62127580 82352342
L62151390 82423771
L62151390 82471390
L62127580 82542819
L62079961 82590438
L62032342 82614247
L61937104 82638057
L61865676 82638057
L61770438 82614247
L61722819 82590438
L61675200 82542819
L61651390 82471390
L61651390 82423771
L61675200 82352342
L61699009 82328533
" />
<path d="M61699009 82138057
L61675200 82114247
L61651390 82066628
L61651390 81947580
L61675200 81899961
L61699009 81876152
L61746628 81852342
L61794247 81852342
L61865676 81876152
L62151390 82161866
L62151390 81852342
" />
</g><g transform="rotate(-90.000000 62331600.000000 94030800.000000)">
<text x="62331600.000000" y="94280800.000000"
textLength="1067262.000000" font-size="666666.000000" lengthAdjust="spacingAndGlyphs"
text-anchor="middle" opacity="0">Y1</text>
</g>
<g class="stroked-text"><desc>Y1</desc>
<path d="M62319695 94268895
L62557790 94268895
" />
<path d="M62057790 94435561
L62319695 94268895
L62057790 94102228
" />
<path d="M62557790 93673657
L62557790 93959371
" />
<path d="M62557790 93816514
L62057790 93816514
L62129219 93864133
L62176838 93911752
L62200647 93959371
" />
</g><g transform="rotate(-90.000000 65532000.000000 67513200.000000)">
<text x="65532000.000000" y="67763200.000000"
textLength="1162500.000000" font-size="666666.000000" lengthAdjust="spacingAndGlyphs"
text-anchor="middle" opacity="0">U3</text>
</g>
<g class="stroked-text"><desc>U3</desc>
<path d="M65258190 67894152
L65662952 67894152
L65710571 67870342
L65734380 67846533
L65758190 67798914
L65758190 67703676
L65734380 67656057
L65710571 67632247
L65662952 67608438
L65258190 67608438
" />
<path d="M65258190 67417961
L65258190 67108438
L65448666 67275104
L65448666 67203676
L65472476 67156057
L65496285 67132247
L65543904 67108438
L65662952 67108438
L65710571 67132247
L65734380 67156057
L65758190 67203676
L65758190 67346533
L65734380 67394152
L65710571 67417961
" />
</g><g transform="rotate(-90.000000 59791600.000000 98602800.000000)">
<text x="59791600.000000" y="98852800.000000"
textLength="1114881.000000" font-size="666666.000000" lengthAdjust="spacingAndGlyphs"
text-anchor="middle" opacity="0">S1</text>
</g>
<g class="stroked-text"><desc>S1</desc>
<path d="M59993980 98983752
L60017790 98912323
L60017790 98793276
L59993980 98745657
L59970171 98721847
L59922552 98698038
L59874933 98698038
L59827314 98721847
L59803504 98745657
L59779695 98793276
L59755885 98888514
L59732076 98936133
L59708266 98959942
L59660647 98983752
L59613028 98983752
L59565409 98959942
L59541600 98936133
L59517790 98888514
L59517790 98769466
L59541600 98698038
" />
<path d="M60017790 98221847
L60017790 98507561
" />
<path d="M60017790 98364704
L59517790 98364704
L59589219 98412323
L59636838 98459942
L59660647 98507561
" />
</g></g>
<g style="fill:#000000; fill-opacity:0.0; 
stroke:#000000; stroke-width:112500.000000; stroke-opacity:1; 
stroke-linecap:round; stroke-linejoin:round;">
<text x="76200000.000000" y="81987200.000000"
textLength="1041071.000000" font-size="600000.000000" lengthAdjust="spacingAndGlyphs"
text-anchor="middle" opacity="0">R7</text>
<g class="stroked-text"><desc>R7</desc>
<path d="M76125000 81963390
L75975000 81725295
" />
<path d="M75867857 81963390
L75867857 81463390
L76039285 81463390
L76082142 81487200
L76103571 81511009
L76125000 81558628
L76125000 81630057
L76103571 81677676
L76082142 81701485
L76039285 81725295
L75867857 81725295
" />
<path d="M76275000 81463390
L76575000 81463390
L76382142 81963390
" />
</g></g>
<g style="fill:#000000; fill-opacity:0.0; 
stroke:#000000; stroke-width:125000.000000; stroke-opacity:1; 
stroke-linecap:round; stroke-linejoin:round;">
<g transform="rotate(-90.000000 66903600.000000 72390000.000000)">
<text x="66903600.000000" y="72640000.000000"
textLength="1146250.000000" font-size="666666.000000" lengthAdjust="spacingAndGlyphs"
text-anchor="middle" opacity="0">U1</text>
</g>
<g class="stroked-text"><desc>U1</desc>
<path d="M66629790 72770952
L67034552 72770952
L67082171 72747142
L67105980 72723333
L67129790 72675714
L67129790 72580476
L67105980 72532857
L67082171 72509047
L67034552 72485238
L66629790 72485238
" />
<path d="M67129790 71985238
L67129790 72270952
" />
<path d="M67129790 72128095
L66629790 72128095
L66701219 72175714
L66748838 72223333
L66772647 72270952
" />
</g><g transform="rotate(-90.000000 72034400.000000 96570800.000000)">
<text x="72034400.000000" y="96820800.000000"
textLength="1138690.000000" font-size="666666.000000" lengthAdjust="spacingAndGlyphs"
text-anchor="middle" opacity="0">D2</text>
</g>
<g class="stroked-text"><desc>D2</desc>
<path d="M72260590 96939847
L71760590 96939847
L71760590 96820800
L71784400 96749371
L71832019 96701752
L71879638 96677942
L71974876 96654133
L72046304 96654133
L72141542 96677942
L72189161 96701752
L72236780 96749371
L72260590 96820800
L72260590 96939847
" />
<path d="M71808209 96463657
L71784400 96439847
L71760590 96392228
L71760590 96273180
L71784400 96225561
L71808209 96201752
L71855828 96177942
L71903447 96177942
L71974876 96201752
L72260590 96487466
L72260590 96177942
" />
</g><g transform="rotate(-90.000000 71831200.000000 73152000.000000)">
<text x="71831200.000000" y="73402000.000000"
textLength="1138690.000000" font-size="666666.000000" lengthAdjust="spacingAndGlyphs"
text-anchor="middle" opacity="0">D1</text>
</g>
<g class="stroked-text"><desc>D1</desc>
<path d="M72057390 73521047
L71557390 73521047
L71557390 73402000
L71581200 73330571
L71628819 73282952
L71676438 73259142
L71771676 73235333
L71843104 73235333
L71938342 73259142
L71985961 73282952
L72033580 73330571
L72057390 73402000
L72057390 73521047
" />
<path d="M72057390 72759142
L72057390 73044857
" />
<path d="M72057390 72902000
L71557390 72902000
L71628819 72949619
L71676438 72997238
L71700247 73044857
" />
</g><text x="74117200.000000" y="89556400.000000"
textLength="1138690.000000" font-size="666666.000000" lengthAdjust="spacingAndGlyphs"
text-anchor="middle" opacity="0">C5</text>
<g class="stroked-text"><desc>C5</desc>
<path d="M74033866 89484971
L74010057 89508780
L73938628 89532590
L73891009 89532590
L73819580 89508780
L73771961 89461161
L73748152 89413542
L73724342 89318304
L73724342 89246876
L73748152 89151638
L73771961 89104019
L73819580 89056400
L73891009 89032590
L73938628 89032590
L74010057 89056400
L74033866 89080209
" />
<path d="M74486247 89032590
L74248152 89032590
L74224342 89270685
L74248152 89246876
L74295771 89223066
L74414819 89223066
L74462438 89246876
L74486247 89270685
L74510057 89318304
L74510057 89437352
L74486247 89484971
L74462438 89508780
L74414819 89532590
L74295771 89532590
L74248152 89508780
L74224342 89484971
" />
</g><g transform="rotate(-90.000000 70815200.000000 76809600.000000)">
<text x="70815200.000000" y="77059600.000000"
textLength="1138690.000000" font-size="666666.000000" lengthAdjust="spacingAndGlyphs"
text-anchor="middle" opacity="0">R6</text>
</g>
<g class="stroked-text"><desc>R6</desc>
<path d="M71041390 76892933
L70803295 77059600
" />
<path d="M71041390 77178647
L70541390 77178647
L70541390 76988171
L70565200 76940552
L70589009 76916742
L70636628 76892933
L70708057 76892933
L70755676 76916742
L70779485 76940552
L70803295 76988171
L70803295 77178647
" />
<path d="M70541390 76464361
L70541390 76559600
L70565200 76607219
L70589009 76631028
L70660438 76678647
L70755676 76702457
L70946152 76702457
L70993771 76678647
L71017580 76654838
L71041390 76607219
L71041390 76511980
L71017580 76464361
L70993771 76440552
L70946152 76416742
L70827104 76416742
L70779485 76440552
L70755676 76464361
L70731866 76511980
L70731866 76607219
L70755676 76654838
L70779485 76678647
L70827104 76702457
" />
</g></g>
<g style="fill:#000000; fill-opacity:0.0; 
stroke:#000000; stroke-width:150000.000000; stroke-opacity:1; 
stroke-linecap:round; stroke-linejoin:round;">
<g transform="rotate(-90.000000 68724000.000000 91948000.000000)">
<text x="68724000.000000" y="92448000.000000"
textLength="2114881.000000" font-size="1333333.000000" lengthAdjust="spacingAndGlyphs"
text-anchor="middle" opacity="0">C4</text>
</g>
<g class="stroked-text"><desc>C4</desc>
<path d="M69081142 92114666
L69128761 92162285
L69176380 92305142
L69176380 92400380
L69128761 92543238
L69033523 92638476
L68938285 92686095
L68747809 92733714
L68604952 92733714
L68414476 92686095
L68319238 92638476
L68224000 92543238
L68176380 92400380
L68176380 92305142
L68224000 92162285
L68271619 92114666
" />
<path d="M68509714 91257523
L69176380 91257523
" />
<path d="M68128761 91495619
L68843047 91733714
L68843047 91114666
" />
</g></g>
<g style="fill:#000000; fill-opacity:0.0; 
stroke:#000000; stroke-width:125000.000000; stroke-opacity:1; 
stroke-linecap:round; stroke-linejoin:round;">
<g transform="rotate(-90.000000 69646800.000000 91643200.000000)">
<text x="69646800.000000" y="91893200.000000"
textLength="1647381.000000" font-size="666666.000000" lengthAdjust="spacingAndGlyphs"
text-anchor="middle" opacity="0">C10</text>
</g>
<g class="stroked-text"><desc>C10</desc>
<path d="M69825371 91964628
L69849180 91988438
L69872990 92059866
L69872990 92107485
L69849180 92178914
L69801561 92226533
L69753942 92250342
L69658704 92274152
L69587276 92274152
L69492038 92250342
L69444419 92226533
L69396800 92178914
L69372990 92107485
L69372990 92059866
L69396800 91988438
L69420609 91964628
" />
<path d="M69872990 91488438
L69872990 91774152
" />
<path d="M69872990 91631295
L69372990 91631295
L69444419 91678914
L69492038 91726533
L69515847 91774152
" />
<path d="M69372990 91178914
L69372990 91131295
L69396800 91083676
L69420609 91059866
L69468228 91036057
L69563466 91012247
L69682514 91012247
L69777752 91036057
L69825371 91059866
L69849180 91083676
L69872990 91131295
L69872990 91178914
L69849180 91226533
L69825371 91250342
L69777752 91274152
L69682514 91297961
L69563466 91297961
L69468228 91274152
L69420609 91250342
L69396800 91226533
L69372990 91178914
" />
</g><g transform="rotate(-90.000000 69037200.000000 79959200.000000)">
<text x="69037200.000000" y="80209200.000000"
textLength="1138690.000000" font-size="666666.000000" lengthAdjust="spacingAndGlyphs"
text-anchor="middle" opacity="0">C7</text>
</g>
<g class="stroked-text"><desc>C7</desc>
<path d="M69215771 80042533
L69239580 80066342
L69263390 80137771
L69263390 80185390
L69239580 80256819
L69191961 80304438
L69144342 80328247
L69049104 80352057
L68977676 80352057
L68882438 80328247
L68834819 80304438
L68787200 80256819
L68763390 80185390
L68763390 80137771
L68787200 80066342
L68811009 80042533
" />
<path d="M68763390 79875866
L68763390 79542533
L69263390 79756819
" />
</g><text x="65633600.000000" y="63343600.000000"
textLength="1138690.000000" font-size="666666.000000" lengthAdjust="spacingAndGlyphs"
text-anchor="middle" opacity="0">R1</text>
<g class="stroked-text"><desc>R1</desc>
<path d="M65550266 63319790
L65383600 63081695
" />
<path d="M65264552 63319790
L65264552 62819790
L65455028 62819790
L65502647 62843600
L65526457 62867409
L65550266 62915028
L65550266 62986457
L65526457 63034076
L65502647 63057885
L65455028 63081695
L65264552 63081695
" />
<path d="M66026457 63319790
L65740742 63319790
" />
<path d="M65883600 63319790
L65883600 62819790
L65835980 62891219
L65788361 62938838
L65740742 62962647
" />
</g><text x="73507600.000000" y="80920400.000000"
textLength="1138690.000000" font-size="666666.000000" lengthAdjust="spacingAndGlyphs"
text-anchor="middle" opacity="0">C8</text>
<g class="stroked-text"><desc>C8</desc>
<path d="M73424266 80848971
L73400457 80872780
L73329028 80896590
L73281409 80896590
L73209980 80872780
L73162361 80825161
L73138552 80777542
L73114742 80682304
L73114742 80610876
L73138552 80515638
L73162361 80468019
L73209980 80420400
L73281409 80396590
L73329028 80396590
L73400457 80420400
L73424266 80444209
" />
<path d="M73709980 80610876
L73662361 80587066
L73638552 80563257
L73614742 80515638
L73614742 80491828
L73638552 80444209
L73662361 80420400
L73709980 80396590
L73805219 80396590
L73852838 80420400
L73876647 80444209
L73900457 80491828
L73900457 80515638
L73876647 80563257
L73852838 80587066
L73805219 80610876
L73709980 80610876
L73662361 80634685
L73638552 80658495
L73614742 80706114
L73614742 80801352
L73638552 80848971
L73662361 80872780
L73709980 80896590
L73805219 80896590
L73852838 80872780
L73876647 80848971
L73900457 80801352
L73900457 80706114
L73876647 80658495
L73852838 80634685
L73805219 80610876
" />
</g><text x="75742800.000000" y="52167600.000000"
textLength="1019643.000000" font-size="666666.000000" lengthAdjust="spacingAndGlyphs"
text-anchor="middle" opacity="0">J4</text>
<g class="stroked-text"><desc>J4</desc>
<path d="M75576133 51643790
L75576133 52000933
L75552323 52072361
L75504704 52119980
L75433276 52143790
L75385657 52143790
" />
<path d="M76028514 51810457
L76028514 52143790
" />
<path d="M75909466 51619980
L75790419 51977123
L76099942 51977123
" />
</g></g>
<g style="fill:#000000; fill-opacity:0.0; 
stroke:#000000; stroke-width:100000.000000; stroke-opacity:1; 
stroke-linecap:round; stroke-linejoin:round;">
<text x="72034400.000000" y="90928800.000000"
textLength="962500.000000" font-size="533333.000000" lengthAdjust="spacingAndGlyphs"
text-anchor="middle" opacity="0">U2</text>
<g class="stroked-text"><desc>U2</desc>
<path d="M71729638 90509752
L71729638 90833561
L71748685 90871657
L71767733 90890704
L71805828 90909752
L71882019 90909752
L71920114 90890704
L71939161 90871657
L71958209 90833561
L71958209 90509752
" />
<path d="M72129638 90547847
L72148685 90528800
L72186780 90509752
L72282019 90509752
L72320114 90528800
L72339161 90547847
L72358209 90585942
L72358209 90624038
L72339161 90681180
L72110590 90909752
L72358209 90909752
" />
</g></g>
<g style="fill:#000000; fill-opacity:0.0; 
stroke:#000000; stroke-width:125000.000000; stroke-opacity:1; 
stroke-linecap:round; stroke-linejoin:round;">
<g transform="rotate(-90.000000 67056000.000000 100634800.000000)">
<text x="67056000.000000" y="100884800.000000"
textLength="987143.000000" font-size="666666.000000" lengthAdjust="spacingAndGlyphs"
text-anchor="middle" opacity="0">J3</text>
</g>
<g class="stroked-text"><desc>J3</desc>
<path d="M66782190 100801466
L67139333 100801466
L67210761 100825276
L67258380 100872895
L67282190 100944323
L67282190 100991942
" />
<path d="M66782190 100610990
L66782190 100301466
L66972666 100468133
L66972666 100396704
L66996476 100349085
L67020285 100325276
L67067904 100301466
L67186952 100301466
L67234571 100325276
L67258380 100349085
L67282190 100396704
L67282190 100539561
L67258380 100587180
L67234571 100610990
" />
</g><g transform="rotate(-90.000000 67462400.000000 98348800.000000)">
<text x="67462400.000000" y="98598800.000000"
textLength="1138690.000000" font-size="666666.000000" lengthAdjust="spacingAndGlyphs"
text-anchor="middle" opacity="0">R2</text>
</g>
<g class="stroked-text"><desc>R2</desc>
<path d="M67688590 98432133
L67450495 98598800
" />
<path d="M67688590 98717847
L67188590 98717847
L67188590 98527371
L67212400 98479752
L67236209 98455942
L67283828 98432133
L67355257 98432133
L67402876 98455942
L67426685 98479752
L67450495 98527371
L67450495 98717847
" />
<path d="M67236209 98241657
L67212400 98217847
L67188590 98170228
L67188590 98051180
L67212400 98003561
L67236209 97979752
L67283828 97955942
L67331447 97955942
L67402876 97979752
L67688590 98265466
L67688590 97955942
" />
</g><text x="61264800.000000" y="86914800.000000"
textLength="1138690.000000" font-size="666666.000000" lengthAdjust="spacingAndGlyphs"
text-anchor="middle" opacity="0">C3</text>
<g class="stroked-text"><desc>C3</desc>
<path d="M61181466 86843371
L61157657 86867180
L61086228 86890990
L61038609 86890990
L60967180 86867180
L60919561 86819561
L60895752 86771942
L60871942 86676704
L60871942 86605276
L60895752 86510038
L60919561 86462419
L60967180 86414800
L61038609 86390990
L61086228 86390990
L61157657 86414800
L61181466 86438609
" />
<path d="M61348133 86390990
L61657657 86390990
L61490990 86581466
L61562419 86581466
L61610038 86605276
L61633847 86629085
L61657657 86676704
L61657657 86795752
L61633847 86843371
L61610038 86867180
L61562419 86890990
L61419561 86890990
L61371942 86867180
L61348133 86843371
" />
</g><g transform="rotate(-90.000000 72339200.000000 79654400.000000)">
<text x="72339200.000000" y="79904400.000000"
textLength="1138690.000000" font-size="666666.000000" lengthAdjust="spacingAndGlyphs"
text-anchor="middle" opacity="0">C9</text>
</g>
<g class="stroked-text"><desc>C9</desc>
<path d="M72517771 79737733
L72541580 79761542
L72565390 79832971
L72565390 79880590
L72541580 79952019
L72493961 79999638
L72446342 80023447
L72351104 80047257
L72279676 80047257
L72184438 80023447
L72136819 79999638
L72089200 79952019
L72065390 79880590
L72065390 79832971
L72089200 79761542
L72113009 79737733
" />
<path d="M72565390 79499638
L72565390 79404400
L72541580 79356780
L72517771 79332971
L72446342 79285352
L72351104 79261542
L72160628 79261542
L72113009 79285352
L72089200 79309161
L72065390 79356780
L72065390 79452019
L72089200 79499638
L72113009 79523447
L72160628 79547257
L72279676 79547257
L72327295 79523447
L72351104 79499638
L72374914 79452019
L72374914 79356780
L72351104 79309161
L72327295 79285352
L72279676 79261542
" />
</g><text x="67462400.000000" y="60651200.000000"
textLength="1138690.000000" font-size="666666.000000" lengthAdjust="spacingAndGlyphs"
text-anchor="middle" opacity="0">R4</text>
<g class="stroked-text"><desc>R4</desc>
<path d="M67379066 60627390
L67212400 60389295
" />
<path d="M67093352 60627390
L67093352 60127390
L67283828 60127390
L67331447 60151200
L67355257 60175009
L67379066 60222628
L67379066 60294057
L67355257 60341676
L67331447 60365485
L67283828 60389295
L67093352 60389295
" />
<path d="M67807638 60294057
L67807638 60627390
" />
<path d="M67688590 60103580
L67569542 60460723
L67879066 60460723
" />
</g><text x="62077600.000000" y="81123600.000000"
textLength="1138690.000000" font-size="666666.000000" lengthAdjust="spacingAndGlyphs"
text-anchor="middle" opacity="0">R3</text>
<g class="stroked-text"><desc>R3</desc>
<path d="M61994266 81099790
L61827600 80861695
" />
<path d="M61708552 81099790
L61708552 80599790
L61899028 80599790
L61946647 80623600
L61970457 80647409
L61994266 80695028
L61994266 80766457
L61970457 80814076
L61946647 80837885
L61899028 80861695
L61708552 80861695
" />
<path d="M62160933 80599790
L62470457 80599790
L62303790 80790266
L62375219 80790266
L62422838 80814076
L62446647 80837885
L62470457 80885504
L62470457 81004552
L62446647 81052171
L62422838 81075980
L62375219 81099790
L62232361 81099790
L62184742 81075980
L62160933 81052171
" />
</g><text x="71374000.000000" y="69033200.000000"
textLength="1114881.000000" font-size="666666.000000" lengthAdjust="spacingAndGlyphs"
text-anchor="middle" opacity="0">S2</text>
<g class="stroked-text"><desc>S2</desc>
<path d="M70993047 68985580
L71064476 69009390
L71183523 69009390
L71231142 68985580
L71254952 68961771
L71278761 68914152
L71278761 68866533
L71254952 68818914
L71231142 68795104
L71183523 68771295
L71088285 68747485
L71040666 68723676
L71016857 68699866
L70993047 68652247
L70993047 68604628
L71016857 68557009
L71040666 68533200
L71088285 68509390
L71207333 68509390
L71278761 68533200
" />
<path d="M71469238 68557009
L71493047 68533200
L71540666 68509390
L71659714 68509390
L71707333 68533200
L71731142 68557009
L71754952 68604628
L71754952 68652247
L71731142 68723676
L71445428 69009390
L71754952 69009390
" />
</g></g>
<g style="fill:#000000; fill-opacity:0.0; 
stroke:#000000; stroke-width:120000.000000; stroke-opacity:1; 
stroke-linecap:round; stroke-linejoin:round;">
<path d="M68680359 78106000
L68987641 78106000
" />
<path d="M68680359 78866000
L68987641 78866000
" />
<path d="M62736000 65035820
L62736000 65316980
" />
<path d="M63756000 65035820
L63756000 65316980
" />
<path d="M71979200 83115036
L71979200 82899364
" />
<path d="M72699200 83115036
L72699200 82899364
" />
<path d="M57972000 53746400
L57972000 102066400
" />
<path d="M55312000 53746400
L55312000 102066400
" />
<path d="M55312000 102066400
L57972000 102066400
" />
<path d="M55312000 51146400
L56642000 51146400
" />
<path d="M55312000 53746400
L57972000 53746400
" />
<path d="M55312000 52476400
L55312000 51146400
" />
</g>
<g style="fill:#000000; fill-opacity:0.0; 
stroke:#000000; stroke-width:200000.000000; stroke-opacity:1; 
stroke-linecap:round; stroke-linejoin:round;">
<path d="M62636800 51203800
L62636800 52483800
" />
<path d="M71576800 51203800
L62636800 51203800
" />
<path d="M62636800 56603800
L62636800 55103800
" />
<path d="M71576800 52483800
L71576800 51203800
" />
<path d="M71576800 56603800
L71576800 55103800
" />
</g>
<g style="fill:#000000; fill-opacity:0.0; 
stroke:#000000; stroke-width:120000.000000; stroke-opacity:1; 
stroke-linecap:round; stroke-linejoin:round;">
<path d="M71804800 78789559
L71804800 79096841
" />
<path d="M71044800 78789559
L71044800 79096841
" />
<path d="M67619200 80930636
L67619200 80714964
" />
<path d="M66899200 80930636
L66899200 80714964
" />
<path d="M68250800 95147159
L68250800 95454441
" />
<path d="M69010800 95147159
L69010800 95454441
" />
<path d="M63098000 82962636
L63098000 82746964
" />
<path d="M62378000 82962636
L62378000 82746964
" />
</g>
<g style="fill:#000000; fill-opacity:0.0; 
stroke:#000000; stroke-width:150000.000000; stroke-opacity:1; 
stroke-linecap:round; stroke-linejoin:round;">
<path d="M64505600 94514800
L64505600 94614800
" />
<path d="M64505600 91514800
L64505600 91414800
" />
<path d="M63205600 91514800
L63205600 91414800
" />
<path d="M63205600 93314800
L63205600 93914800
" />
<path d="M63205600 94514800
L63205600 94614800
" />
<path d="M63205600 94614800
L64505600 94614800
" />
<path d="M64505600 93314800
L64505600 93914800
" />
<path d="M63205600 92714800
L63205600 92114800
" />
<path d="M64505600 92714800
L64505600 92114800
" />
<path d="M63205600 91414800
L64505600 91414800
" />
</g>
<g style="fill:#000000; fill-opacity:0.0; 
stroke:#000000; stroke-width:120000.000000; stroke-opacity:1; 
stroke-linecap:round; stroke-linejoin:round;">
<path d="M61787600 68326000
L61787600 70001000
" />
<path d="M64907600 68326000
L64907600 67676000
" />
<path d="M64907600 68326000
L64907600 68976000
" />
<path d="M61787600 68326000
L61787600 67676000
" />
<path d="M66246000 99502800
L66246000 97702800
" />
<path d="M60246000 99502800
L60246000 97702800
" />
<path d="M64646000 101602800
L61846000 101602800
" />
<path d="M64646000 95602800
L61846000 95602800
" />
<circle cx="63246000.000000" cy="98602800.000000" r="1750000.000000" /> 
<path d="M76072000 80570041
L76072000 80262759
" />
<path d="M75312000 80570041
L75312000 80262759
" />
<path d="M67583200 76301600
L67583200 79301600
" />
<path d="M62363200 73301600
L62363200 79301600
" />
<path d="M69296400 97951000
L71216400 97951000
" />
<path d="M71216400 97951000
L71216400 95266000
" />
<path d="M69296400 95266000
L69296400 97951000
" />
<path d="M71419600 74202800
L71419600 71517800
" />
<path d="M71419600 71517800
L69499600 71517800
" />
<path d="M69499600 71517800
L69499600 74202800
" />
<path d="M74009364 88752000
L74225036 88752000
" />
<path d="M74009364 88032000
L74225036 88032000
" />
<path d="M70738000 78738759
L70738000 79046041
" />
<path d="M69978000 78738759
L69978000 79046041
" />
<path d="M67924000 91840164
L67924000 92055836
" />
<path d="M67204000 91840164
L67204000 92055836
" />
<path d="M68990800 91840164
L68990800 92055836
" />
<path d="M68270800 91840164
L68270800 92055836
" />
<path d="M67966000 80981436
L67966000 80765764
" />
<path d="M68686000 80981436
L68686000 80765764
" />
<path d="M66013600 60806359
L66013600 61113641
" />
<path d="M65253600 60806359
L65253600 61113641
" />
<path d="M72434564 81123200
L72650236 81123200
" />
<path d="M72434564 81843200
L72650236 81843200
" />
<path d="M76800400 52476400
L76800400 51146400
" />
<path d="M76800400 51146400
L78130400 51146400
" />
<path d="M76800400 102066400
L79460400 102066400
" />
<path d="M76800400 53746400
L79460400 53746400
" />
<path d="M76800400 53746400
L76800400 102066400
" />
<path d="M79460400 53746400
L79460400 102066400
" />
</g>
<g style="fill:#000000; fill-opacity:0.0; 
stroke:#000000; stroke-width:150000.000000; stroke-opacity:1; 
stroke-linecap:round; stroke-linejoin:round;">
<path d="M63962400 83309200
L63962400 82809200
" />
<path d="M70962400 89809200
L70962400 89309200
" />
<path d="M63962400 89309200
L63962400 89809200
" />
<path d="M70462400 89809200
L70962400 89809200
" />
<path d="M70462400 82809200
L70962400 82809200
" />
<path d="M63962400 82809200
L64462400 82809200
" />
<path d="M63962400 89809200
L64462400 89809200
" />
<path d="M70962400 82809200
L70962400 83309200
" />
</g>
<g style="fill:#000000; fill-opacity:1.0; 
stroke:#000000; stroke-width:1.000000; stroke-opacity:1; 
stroke-linecap:round; stroke-linejoin:round;">
<circle cx="63462400.000000" cy="83059200.000000" r="160000.000000" /> 
</g>
<g style="fill:#000000; fill-opacity:1.0; 
stroke:#000000; stroke-width:120000.000000; stroke-opacity:1; 
stroke-linecap:round; stroke-linejoin:round;">
</g>
<g style="fill:#000000; fill-opacity:0.0; 
stroke:#000000; stroke-width:120000.000000; stroke-opacity:1; 
stroke-linecap:round; stroke-linejoin:round;">
<path d="M69240400 102015600
L67910400 102015600
" />
<path d="M67910400 102015600
L67910400 100685600
" />
<path d="M70510400 102015600
L70510400 99355600
" />
<path d="M70510400 99355600
L75650400 99355600
" />
<path d="M70510400 102015600
L75650400 102015600
" />
<path d="M75650400 102015600
L75650400 99355600
" />
<path d="M68149200 97486441
L68149200 97179159
" />
<path d="M68909200 97486441
L68909200 97179159
" />
<path d="M62287036 87168400
L62071364 87168400
" />
<path d="M62287036 87888400
L62071364 87888400
" />
<path d="M70709200 81083036
L70709200 80867364
" />
<path d="M71429200 81083036
L71429200 80867364
" />
<path d="M68858400 60196759
L68858400 60504041
" />
<path d="M68098400 60196759
L68098400 60504041
" />
<path d="M63755241 81812400
L63447959 81812400
" />
<path d="M63755241 81052400
L63447959 81052400
" />
<path d="M74221600 66178000
L74221600 64378000
" />
<path d="M68221600 66178000
L68221600 64378000
" />
<path d="M72621600 62278000
L69821600 62278000
" />
<path d="M72621600 68278000
L69821600 68278000
" />
<circle cx="71221600.000000" cy="65278000.000000" r="1750000.000000" /> 
<g >
</g>
<g >
</g>
<g >
</g>
<g >
</g>
<g >
</g>
<g >
</g>
<g >
</g>
<g >
</g>
<g >
</g>
<g >
</g>
<g >
</g>
<g >
</g>
<g >
</g>
<g >
</g>
<g >
</g>
<g >
</g>
<g >
</g>
<g >
</g>
<g >
</g>
<g >
</g>
<g >
</g>
<g >
</g>
<g >
</g>
<g >
</g>
<g >
</g>
<g >
</g>
<g >
</g>
<g >
</g>
<g >
</g>
<g >
</g>
<g >
</g>
<g >
</g>
<g >
</g>
<g >
</g>
<g >
</g>
<g >
</g>
</g> 
</svg>
